<svg width="26" height="26" viewBox="0 0 26 26" fill="none" xmlns="http://www.w3.org/2000/svg">
<path d="M25 12H14V1C14 0.734784 13.8946 0.48043 13.7071 0.292893C13.5196 0.105357 13.2652 0 13 0C12.7348 0 12.4804 0.105357 12.2929 0.292893C12.1053 0.48043 12 0.734784 12 1V12H0.999984C0.734767 12 0.480414 12.1054 0.292877 12.2929C0.105341 12.4804 -1.61051e-05 12.7348 -1.61051e-05 13C-0.00495073 13.13 0.0180307 13.2595 0.0673791 13.3798C0.116728 13.5001 0.191296 13.6085 0.28606 13.6976C0.380825 13.7867 0.493582 13.8544 0.616735 13.8962C0.739887 13.938 0.870572 13.953 0.999984 13.94H12V25C12 25.2652 12.1053 25.5196 12.2929 25.7071C12.4804 25.8946 12.7348 26 13 26C13.2652 26 13.5196 25.8946 13.7071 25.7071C13.8946 25.5196 14 25.2652 14 25V14H25C25.2652 14 25.5196 13.8946 25.7071 13.7071C25.8946 13.5196 26 13.2652 26 13C26 12.7348 25.8946 12.4804 25.7071 12.2929C25.5196 12.1054 25.2652 12 25 12Z" fill="#404040"/>
</svg>
