<svg width="23" height="23" viewBox="0 0 23 23" fill="none" xmlns="http://www.w3.org/2000/svg">
<path d="M22.2782 4.97357L17.9718 0.713933C17.5096 0.256813 16.8828 3.38039e-06 16.2293 0H2.46429C1.10328 0 0 1.09129 0 2.4375V20.3125C0 21.6587 1.10328 22.75 2.46429 22.75H20.5357C21.8967 22.75 23 21.6587 23 20.3125V6.69713C23 6.05067 22.7404 5.43068 22.2782 4.97357V4.97357ZM13.9643 2.4375V6.5H7.39286V2.4375H13.9643ZM20.2277 20.3125H2.77232C2.69063 20.3125 2.61228 20.2804 2.55451 20.2233C2.49674 20.1661 2.46429 20.0886 2.46429 20.0078V2.74219C2.46429 2.66138 2.49674 2.58388 2.55451 2.52674C2.61228 2.4696 2.69063 2.4375 2.77232 2.4375H4.92857V7.71875C4.92857 8.39186 5.48021 8.9375 6.16071 8.9375H15.1964C15.8769 8.9375 16.4286 8.39186 16.4286 7.71875V2.63463L20.4455 6.60791C20.4741 6.63621 20.4968 6.6698 20.5123 6.70677C20.5278 6.74374 20.5357 6.78336 20.5357 6.82337V20.0078C20.5357 20.0886 20.5033 20.1661 20.4455 20.2233C20.3877 20.2804 20.3094 20.3125 20.2277 20.3125V20.3125ZM11.5 10.1562C9.00886 10.1562 6.98214 12.1609 6.98214 14.625C6.98214 17.0891 9.00886 19.0938 11.5 19.0938C13.9911 19.0938 16.0179 17.0891 16.0179 14.625C16.0179 12.1609 13.9911 10.1562 11.5 10.1562ZM11.5 16.6562C10.3677 16.6562 9.44643 15.745 9.44643 14.625C9.44643 13.505 10.3677 12.5938 11.5 12.5938C12.6323 12.5938 13.5536 13.505 13.5536 14.625C13.5536 15.745 12.6323 16.6562 11.5 16.6562Z" fill="white"/>
</svg>
