<svg width="19" height="19" viewBox="0 0 19 19" fill="none" xmlns="http://www.w3.org/2000/svg">
<path d="M9.5 19C4.24706 19 0 14.7529 0 9.5C0 4.24706 4.24706 0 9.5 0C14.7529 0 19 4.24706 19 9.5C19 14.7529 14.7529 19 9.5 19ZM9.5 1.11765C4.86176 1.11765 1.11765 4.86176 1.11765 9.5C1.11765 14.1382 4.86176 17.8824 9.5 17.8824C14.1382 17.8824 17.8824 14.1382 17.8824 9.5C17.8824 4.86176 14.1382 1.11765 9.5 1.11765Z" fill="#404040"/>
<path d="M13.5699 4.63934L14.3601 5.43008L5.4301 14.3601L4.63992 13.5699L13.5699 4.63934Z" fill="#404040"/>
<path d="M5.4301 4.63934L14.3601 13.5693L13.5699 14.3601L4.63992 5.43008L5.4301 4.63934Z" fill="#404040"/>
</svg>
